<?xml version="1.0" standalone="no"?>
<!DOCTYPE svg PUBLIC "-//W3C//DTD SVG 20010904//EN"
 "http://www.w3.org/TR/2001/REC-SVG-20010904/DTD/svg10.dtd">
<svg version="1.0" xmlns="http://www.w3.org/2000/svg"
 width="800.000000pt" height="800.000000pt" viewBox="0 0 800.000000 800.000000"
 preserveAspectRatio="xMidYMid meet">
<metadata>
Created by potrace 1.11, written by Peter Selinger 2001-2013
</metadata>
<g transform="translate(0.000000,800.000000) scale(0.100000,-0.100000)"
fill="#000000" stroke="none">
<path d="M3749 7006 c-2 -2 -40 -7 -84 -10 -44 -4 -96 -8 -115 -11 -19 -3 -55
-7 -80 -11 -163 -21 -388 -73 -530 -121 -99 -33 -265 -112 -337 -160 -84 -55
-171 -147 -202 -212 l-26 -56 0 -395 0 -395 25 -50 c30 -61 124 -159 205 -212
149 -99 435 -205 670 -247 128 -24 168 -30 270 -42 33 -3 68 -8 79 -10 116
-21 630 -20 796 1 19 3 55 7 80 10 357 43 667 133 875 254 134 78 212 154 258
250 l31 65 0 335 c1 389 -3 443 -40 512 -66 121 -228 235 -464 327 -76 30 -90
35 -215 71 -102 29 -336 72 -470 86 -33 4 -71 9 -85 12 -30 6 -635 15 -641 9z"/>
<path d="M4255 4981 c-103 -34 -177 -100 -224 -200 -22 -48 -26 -69 -26 -151
0 -85 3 -101 29 -152 39 -77 98 -135 176 -172 58 -28 75 -31 155 -31 79 0 97
3 150 29 150 74 237 238 206 389 -26 125 -98 218 -211 271 -78 36 -176 43
-255 17z"/>
<path d="M4840 4299 c-130 -16 -157 -20 -265 -40 -176 -33 -382 -87 -438 -115
-110 -55 -233 -167 -330 -302 -30 -43 -104 -156 -163 -252 -59 -96 -125 -198
-145 -226 -49 -67 -115 -122 -153 -129 -17 -3 -128 -7 -246 -9 -242 -5 -272
-8 -421 -41 -243 -54 -414 -158 -479 -290 l-25 -50 0 -470 c0 -519 -3 -495 68
-645 26 -56 118 -205 136 -220 4 -3 24 -28 45 -56 148 -198 536 -362 1026
-434 275 -41 782 -49 1015 -15 17 2 50 6 75 10 59 7 100 13 190 31 41 8 85 16
97 19 13 2 66 16 119 30 257 70 479 178 600 292 85 80 224 286 266 395 48 126
47 102 45 1138 -2 937 -3 977 -21 1020 -84 196 -268 314 -561 359 -72 11 -344
11 -435 0z"/>
</g>
</svg>
