<?xml version="1.0" encoding="UTF-8"?>
<svg width="16px" height="16px" viewBox="0 0 16 16" version="1.1" xmlns="http://www.w3.org/2000/svg" xmlns:xlink="http://www.w3.org/1999/xlink">
    <!-- Generator: Sketch 48.2 (47327) - http://www.bohemiancoding.com/sketch -->
    <title>assets/icons/arrow-down</title>
    <desc>Created with Sketch.</desc>
    <defs>
        <path d="M2,5.375 C2,5.27205831 2.03948628,5.1838239 2.11846002,5.11029412 C2.19743376,5.03676434 2.29220083,5 2.40276407,5 C2.51332731,5 2.60809437,5.03676434 2.68706811,5.11029412 L8.04146101,10.0955882 L13.3129319,5.1875 C13.3919056,5.11397022 13.4866727,5.07720588 13.5972359,5.07720588 C13.7077992,5.07720588 13.8025662,5.11397022 13.88154,5.1875 C13.9605137,5.26102978 14,5.34926419 14,5.45220588 C14,5.55514757 13.9605137,5.64338199 13.88154,5.71691176 L8.32576505,10.8897059 C8.24679131,10.9632357 8.15202424,11 8.04146101,11 C7.93089777,11 7.8361307,10.9632357 7.75715696,10.8897059 L2.11846002,5.65073529 C2.10266527,5.63602934 2.08884507,5.61948539 2.07699901,5.60110294 C2.06515295,5.5827205 2.05528138,5.56433833 2.04738401,5.54595588 L2.023692,5.49080882 C2.01579463,5.47242638 2.00987169,5.45404421 2.005923,5.43566176 C2.00197431,5.41727932 2,5.39705893 2,5.375 Z" id="path-1"></path>
    </defs>
    <g id="Symbols" stroke="none" stroke-width="1" fill="none" fill-rule="evenodd">
        <g id="assets/icons/arrow-down">
            <mask id="mask-2" fill="white">
                <use xlink:href="#path-1"></use>
            </mask>
            <use id="icon" fill="#000000" xlink:href="#path-1"></use>
            <g id="pallete/contextual/primary" mask="url(#mask-2)" fill="#747474">
                <rect id="bg" x="0" y="0" width="16" height="16"></rect>
            </g>
        </g>
    </g>
</svg>