<?xml version="1.0" encoding="UTF-8"?>
<svg width="16px" height="16px" viewBox="0 0 16 16" version="1.1" xmlns="http://www.w3.org/2000/svg" xmlns:xlink="http://www.w3.org/1999/xlink">
    <!-- Generator: Sketch 48.2 (47327) - http://www.bohemiancoding.com/sketch -->
    <title>assets/icons/check-circle</title>
    <desc>Created with Sketch.</desc>
    <defs>
        <path d="M6.824,11.026 L12.074,5.776 L11.248,4.922 L6.824,9.36 L4.752,7.274 L3.926,8.1 L6.824,11.026 Z M8,2.276 C9.06400532,2.276 10.0486621,2.54199734 10.954,3.074 C11.8313377,3.57800252 12.5219975,4.26866228 13.026,5.146 C13.5580027,6.05133786 13.824,7.03599468 13.824,8.1 C13.824,9.16400532 13.5580027,10.1486621 13.026,11.054 C12.5219975,11.9313377 11.8313377,12.6219975 10.954,13.126 C10.0486621,13.6580027 9.06400532,13.924 8,13.924 C6.93599468,13.924 5.95133786,13.6580027 5.046,13.126 C4.16866228,12.6126641 3.47800252,11.9173377 2.974,11.04 C2.44199734,10.1346621 2.176,9.15467194 2.176,8.1 C2.176,7.04532806 2.44199734,6.06533786 2.974,5.16 C3.4873359,4.28266228 4.18266228,3.5873359 5.06,3.074 C5.96533786,2.54199734 6.94532806,2.276 8,2.276 Z" id="path-1"></path>
    </defs>
    <g id="Symbols" stroke="none" stroke-width="1" fill="none" fill-rule="evenodd">
        <g id="assets/icons/check-circle">
            <mask id="mask-2" fill="white">
                <use xlink:href="#path-1"></use>
            </mask>
            <use id="icon" fill="#000000" xlink:href="#path-1"></use>
            <g id="pallete/contextual/primary" mask="url(#mask-2)" fill="#747474">
                <rect id="bg" x="0" y="0" width="16" height="16"></rect>
            </g>
        </g>
    </g>
</svg>