<?xml version="1.0" encoding="UTF-8"?>
<svg width="16px" height="16px" viewBox="0 0 16 16" version="1.1" xmlns="http://www.w3.org/2000/svg" xmlns:xlink="http://www.w3.org/1999/xlink">
    <!-- Generator: Sketch 48.2 (47327) - http://www.bohemiancoding.com/sketch -->
    <title>assets/icons/education</title>
    <desc>Created with Sketch.</desc>
    <defs>
        <path d="M7.5,7.44931457 L12.8068482,5 L7.5,2.55068543 L2.19315176,5 L7.5,7.44931457 Z M3.5,6.70453158 L3.5,11.9130435 C3.5,12.6846935 5.25806237,13.5 7.5,13.5 C9.74193763,13.5 11.5,12.6846935 11.5,11.9130435 L11.5,6.70453158 L7.70952909,8.45397969 C7.57658153,8.5153401 7.42341847,8.5153401 7.29047091,8.45397969 L3.5,6.70453158 Z M2.5,6.24299312 L0.790470911,5.45397969 C0.403176363,5.27522836 0.403176363,4.72477164 0.790470911,4.54602031 L7.29047091,1.54602031 C7.42341847,1.4846599 7.57658153,1.4846599 7.70952909,1.54602031 L14.2095291,4.54602031 C14.5968236,4.72477164 14.5968236,5.27522836 14.2095291,5.45397969 L12.5,6.24299312 L12.5,11.9130435 C12.5,13.4467161 10.2287818,14.5 7.5,14.5 C4.77121818,14.5 2.5,13.4467161 2.5,11.9130435 L2.5,6.24299312 Z M13.5,8 C13.5,7.72385763 13.7238576,7.5 14,7.5 C14.2761424,7.5 14.5,7.72385763 14.5,8 L14.5,11 C14.5,11.2761424 14.2761424,11.5 14,11.5 C13.7238576,11.5 13.5,11.2761424 13.5,11 L13.5,8 Z" id="path-1"></path>
    </defs>
    <g id="Symbols" stroke="none" stroke-width="1" fill="none" fill-rule="evenodd">
        <g id="assets/icons/education">
            <mask id="mask-2" fill="white">
                <use xlink:href="#path-1"></use>
            </mask>
            <use id="icon" fill="#444444" fill-rule="nonzero" xlink:href="#path-1"></use>
            <g id="pallete/contextual/primary" mask="url(#mask-2)" fill="#747474">
                <rect id="bg" x="0" y="0" width="16" height="16"></rect>
            </g>
        </g>
    </g>
</svg>