<?xml version="1.0" encoding="UTF-8"?>
<svg width="16px" height="16px" viewBox="0 0 16 16" version="1.1" xmlns="http://www.w3.org/2000/svg" xmlns:xlink="http://www.w3.org/1999/xlink">
    <!-- Generator: Sketch 48.2 (47327) - http://www.bohemiancoding.com/sketch -->
    <title>assets/icons/experience</title>
    <desc>Created with Sketch.</desc>
    <defs>
        <path d="M7,2 L7,0.5 C7,0.223857625 7.22385763,0 7.5,0 C7.77614237,0 8,0.223857625 8,0.5 L8,2 L11,2 L11,0.5 C11,0.223857625 11.2238576,0 11.5,0 C11.7761424,0 12,0.223857625 12,0.5 L12,2 L13.5,2 C14.3281424,2 15,2.67185763 15,3.5 L15,14.5 C15,15.3281424 14.3281424,16 13.5,16 L1.5,16 C0.671857625,16 0,15.3281424 0,14.5 L0,3.5 C0,2.67185763 0.671857625,2 1.5,2 L3,2 L3,0.5 C3,0.223857625 3.22385763,0 3.5,0 C3.77614237,0 4,0.223857625 4,0.5 L4,2 L7,2 Z M14,5 L14,3.5 C14,3.22414237 13.7758576,3 13.5,3 L1.5,3 C1.22414237,3 1,3.22414237 1,3.5 L1,5 L14,5 Z M14,6 L1,6 L1,14.5 C1,14.7758576 1.22414237,15 1.5,15 L13.5,15 C13.7758576,15 14,14.7758576 14,14.5 L14,6 Z" id="path-1"></path>
    </defs>
    <g id="Symbols" stroke="none" stroke-width="1" fill="none" fill-rule="evenodd">
        <g id="assets/icons/experience">
            <mask id="mask-2" fill="white">
                <use xlink:href="#path-1"></use>
            </mask>
            <use id="icon" fill="#444444" fill-rule="nonzero" xlink:href="#path-1"></use>
            <g id="pallete/contextual/primary" mask="url(#mask-2)" fill="#747474">
                <rect id="bg" x="0" y="0" width="16" height="16"></rect>
            </g>
        </g>
    </g>
</svg>