<?xml version="1.0" encoding="UTF-8"?>
<svg width="16px" height="16px" viewBox="0 0 16 16" version="1.1" xmlns="http://www.w3.org/2000/svg" xmlns:xlink="http://www.w3.org/1999/xlink">
    <!-- Generator: Sketch 48.2 (47327) - http://www.bohemiancoding.com/sketch -->
    <title>assets/icons/location</title>
    <desc>Created with Sketch.</desc>
    <defs>
        <path d="M8.49805407,14.3028262 C9.13017775,13.6419696 9.76246642,12.9119636 10.3516544,12.1353068 C11.6651514,10.4038788 12.5690192,8.70043577 12.8816105,7.13747912 C12.9600534,6.74526474 13,6.36577171 13,6 C13,3.23857625 10.7614237,1 8,1 C5.23857625,1 3,3.23857625 3,6 C3,6.36577171 3.03994663,6.74526474 3.11838951,7.13747912 C3.43098084,8.70043577 4.33484859,10.4038788 5.64834564,12.1353068 C6.23753358,12.9119636 6.86982225,13.6419696 7.50194593,14.3028262 C7.67922689,14.4881654 7.84617395,14.6571674 8,14.8084157 C8.15382605,14.6571674 8.32077311,14.4881654 8.49805407,14.3028262 Z M14,6 C14,6.43381507 13.9531698,6.8787022 13.8621912,7.33359526 C13.5146585,9.07125844 12.5450759,10.8985489 11.1483456,12.7396932 C10.5344086,13.5489739 9.87763475,14.3072492 9.22069593,14.9940488 C8.99051396,15.2346936 8.77650079,15.4494551 8.58399997,15.6357059 C8.46738193,15.7485376 8.38304402,15.8275086 8.3363364,15.86997 C8.14562578,16.0433433 7.85437422,16.0433433 7.6636636,15.86997 C7.61695598,15.8275086 7.53261807,15.7485376 7.41600003,15.6357059 C7.22349921,15.4494551 7.00948604,15.2346936 6.77930407,14.9940488 C6.12236525,14.3072492 5.46559142,13.5489739 4.85165436,12.7396932 C3.45492414,10.8985489 2.48534147,9.07125844 2.13780884,7.33359526 C2.04683022,6.8787022 2,6.43381507 2,6 C2,2.6862915 4.6862915,6.05576195e-16 8,0 C11.3137085,-6.05576195e-16 14,2.6862915 14,6 Z M8,9 C6.34314575,9 5,7.65685425 5,6 C5,4.34314575 6.34314575,3 8,3 C9.65685425,3 11,4.34314575 11,6 C11,7.65685425 9.65685425,9 8,9 Z M8,8 C9.1045695,8 10,7.1045695 10,6 C10,4.8954305 9.1045695,4 8,4 C6.8954305,4 6,4.8954305 6,6 C6,7.1045695 6.8954305,8 8,8 Z" id="path-1"></path>
    </defs>
    <g id="Symbols" stroke="none" stroke-width="1" fill="none" fill-rule="evenodd">
        <g id="assets/icons/location">
            <mask id="mask-2" fill="white">
                <use xlink:href="#path-1"></use>
            </mask>
            <use id="icon" fill="#444444" fill-rule="nonzero" xlink:href="#path-1"></use>
            <g id="pallete/contextual/primary" mask="url(#mask-2)" fill="#747474">
                <rect id="bg" x="0" y="0" width="16" height="16"></rect>
            </g>
        </g>
    </g>
</svg>