<?xml version="1.0" encoding="UTF-8"?>
<svg width="16px" height="16px" viewBox="0 0 16 16" version="1.1" xmlns="http://www.w3.org/2000/svg" xmlns:xlink="http://www.w3.org/1999/xlink">
    <!-- Generator: Sketch 48.2 (47327) - http://www.bohemiancoding.com/sketch -->
    <title>assets/icons/magnifier</title>
    <desc>Created with Sketch.</desc>
    <defs>
        <path d="M13.90625,13.1054688 C13.9765629,13.1757816 14.0117188,13.2636713 14.0117188,13.3691406 C14.0117188,13.4746099 13.9746097,13.5644528 13.9003906,13.6386719 C13.8261715,13.712891 13.7382818,13.75 13.6367188,13.75 C13.5351557,13.75 13.4453129,13.7109379 13.3671875,13.6328125 L9.734375,9.9765625 C8.85155809,10.7421913 7.82813082,11.125 6.6640625,11.125 C5.81249574,11.125 5.02734734,10.9160177 4.30859375,10.4980469 C3.58984016,10.080076 3.02148646,9.51172234 2.60351562,8.79296875 C2.18554479,8.07421516 1.9765625,7.28906676 1.9765625,6.4375 C1.9765625,5.58593324 2.18554479,4.80078484 2.60351562,4.08203125 C3.02148646,3.36327766 3.58984016,2.79492396 4.30859375,2.37695312 C5.02734734,1.95898229 5.81054264,1.75 6.65820312,1.75 C7.50586361,1.75 8.29101201,1.95898229 9.01367188,2.37695312 C9.73633174,2.79492396 10.3066385,3.36327766 10.7246094,4.08203125 C11.1425802,4.80078484 11.3515625,5.58593324 11.3515625,6.4375 C11.3515625,7.57031816 10.9882849,8.57030816 10.2617188,9.4375 L13.90625,13.1054688 Z M6.6640625,10.3867188 C6.96875152,10.3867188 7.26952977,10.3515629 7.56640625,10.28125 C7.86328273,10.2109371 8.14062371,10.1113288 8.3984375,9.98242188 C8.65625129,9.85351498 8.89843637,9.69921965 9.125,9.51953125 C9.35156363,9.33984285 9.5546866,9.13476678 9.734375,8.90429688 C9.9140634,8.67382697 10.0683587,8.42968879 10.1972656,8.171875 C10.3261725,7.91406121 10.4257809,7.63672023 10.4960938,7.33984375 C10.5664066,7.04296727 10.6015625,6.74218902 10.6015625,6.4375 C10.6015625,5.72655895 10.425783,5.0683624 10.0742188,4.46289062 C9.72265449,3.85741885 9.24414365,3.3769549 8.63867188,3.02148438 C8.0332001,2.66601385 7.37305045,2.48828125 6.65820312,2.48828125 C5.9433558,2.48828125 5.28320615,2.66601385 4.67773438,3.02148438 C4.0722626,3.3769549 3.59375176,3.85741885 3.2421875,4.46289062 C2.89062324,5.0683624 2.71484375,5.72655895 2.71484375,6.4375 C2.71484375,7.14844105 2.89062324,7.8066376 3.2421875,8.41210938 C3.59375176,9.01758115 4.0722626,9.4980451 4.67773438,9.85351562 C5.28320615,10.2089862 5.94530891,10.3867188 6.6640625,10.3867188 Z" id="path-1"></path>
    </defs>
    <g id="Symbols" stroke="none" stroke-width="1" fill="none" fill-rule="evenodd">
        <g id="assets/icons/magnifier">
            <mask id="mask-2" fill="white">
                <use xlink:href="#path-1"></use>
            </mask>
            <use id="icon" fill="#000000" xlink:href="#path-1"></use>
            <g id="pallete/contextual/primary" mask="url(#mask-2)" fill="#747474">
                <rect id="bg" x="0" y="0" width="16" height="16"></rect>
            </g>
        </g>
    </g>
</svg>