<?xml version="1.0" encoding="UTF-8"?>
<svg width="16px" height="16px" viewBox="0 0 16 16" version="1.1" xmlns="http://www.w3.org/2000/svg" xmlns:xlink="http://www.w3.org/1999/xlink">
    <!-- Generator: Sketch 48.2 (47327) - http://www.bohemiancoding.com/sketch -->
    <title>assets/icons/pencil</title>
    <desc>Created with Sketch.</desc>
    <defs>
        <path d="M12,1.70710678 L2.45148201,11.2556248 L1.68718427,14.3128157 L4.74437523,13.548518 L14.2928932,4 L12,1.70710678 Z M12.3535534,0.646446609 L15.3535534,3.64644661 C15.5488155,3.84170876 15.5488155,4.15829124 15.3535534,4.35355339 L5.35355339,14.3535534 C5.28947398,14.4176328 5.20918404,14.4630922 5.12126781,14.4850713 L1.12126781,15.4850713 C0.755077579,15.5766188 0.423381192,15.2449224 0.51492875,14.8787322 L1.51492875,10.8787322 C1.53690781,10.790816 1.5823672,10.710526 1.64644661,10.6464466 L11.6464466,0.646446609 C11.8417088,0.451184464 12.1582912,0.451184464 12.3535534,0.646446609 Z M9.64644661,3.35355339 C9.45118446,3.15829124 9.45118446,2.84170876 9.64644661,2.64644661 C9.84170876,2.45118446 10.1582912,2.45118446 10.3535534,2.64644661 L13.3535534,5.64644661 C13.5488155,5.84170876 13.5488155,6.15829124 13.3535534,6.35355339 C13.1582912,6.54881554 12.8417088,6.54881554 12.6464466,6.35355339 L9.64644661,3.35355339 Z" id="path-1"></path>
    </defs>
    <g id="Symbols" stroke="none" stroke-width="1" fill="none" fill-rule="evenodd">
        <g id="assets/icons/pencil">
            <mask id="mask-2" fill="white">
                <use xlink:href="#path-1"></use>
            </mask>
            <use id="icon" fill="#444444" fill-rule="nonzero" xlink:href="#path-1"></use>
            <g id="pallete/contextual/primary" mask="url(#mask-2)" fill="#747474">
                <rect id="bg" x="0" y="0" width="16" height="16"></rect>
            </g>
        </g>
    </g>
</svg>