<?xml version="1.0" encoding="UTF-8"?>
<svg width="16px" height="16px" viewBox="0 0 16 16" version="1.1" xmlns="http://www.w3.org/2000/svg" xmlns:xlink="http://www.w3.org/1999/xlink">
    <!-- Generator: Sketch 48.2 (47327) - http://www.bohemiancoding.com/sketch -->
    <title>assets/icons/skills</title>
    <desc>Created with Sketch.</desc>
    <defs>
        <path d="M12.8333333,4.39289322 L14.5484466,2.67777994 C14.7954806,2.43074599 15.2132492,2.50676163 15.357432,2.82497993 C15.6139992,3.39123633 15.75,3.99620525 15.75,4.61666667 C15.75,7.02817571 13.7948424,8.98333333 11.3833333,8.98333333 C10.9280216,8.98333333 10.4817246,8.91334769 10.0563379,8.7779765 L5.01778267,15.5485062 C4.83567835,15.7932078 4.47879924,15.8192394 4.26311328,15.6035534 L0.396446609,11.7368867 C0.180760645,11.5212008 0.206792164,11.1643217 0.451493795,10.9822173 L7.2220235,5.94366207 C7.08665231,5.51827537 7.01666667,5.07197841 7.01666667,4.61666667 C7.01666667,2.20515763 8.97182429,0.25 11.3833333,0.25 C12.0037947,0.25 12.6087637,0.386000766 13.1750201,0.642568037 C13.4932384,0.786750779 13.569254,1.20451944 13.3222201,1.45155339 L11.6071068,3.16666667 L12.8333333,4.39289322 Z M14.6823929,3.95804723 L13.1868867,5.45355339 C12.9916246,5.64881554 12.6750421,5.64881554 12.4797799,5.45355339 L10.5464466,3.52022006 C10.3511845,3.32495791 10.3511845,3.00837542 10.5464466,2.81311328 L12.0419528,1.31760712 C11.8257311,1.27287702 11.6056714,1.25 11.3833333,1.25 C9.52410904,1.25 8.01666667,2.75744237 8.01666667,4.61666667 C8.01666667,5.07269423 8.10727697,5.51574884 8.28090899,5.9274802 C8.37037155,6.13962162 8.303407,6.38543033 8.11870621,6.52288267 L1.51274286,11.4389694 L4.56103059,14.4872571 L9.47711733,7.88129379 C9.61456967,7.696593 9.86037838,7.62962845 10.0725198,7.71909101 C10.4842512,7.89272303 10.9273058,7.98333333 11.3833333,7.98333333 C13.2425576,7.98333333 14.75,6.47589096 14.75,4.61666667 C14.75,4.3943286 14.727123,4.1742689 14.6823929,3.95804723 Z" id="path-1"></path>
    </defs>
    <g id="Symbols" stroke="none" stroke-width="1" fill="none" fill-rule="evenodd">
        <g id="assets/icons/skills">
            <mask id="mask-2" fill="white">
                <use xlink:href="#path-1"></use>
            </mask>
            <use id="icon" fill="#444444" fill-rule="nonzero" xlink:href="#path-1"></use>
            <g id="pallete/contextual/primary" mask="url(#mask-2)" fill="#747474">
                <rect id="bg" x="0" y="0" width="16" height="16"></rect>
            </g>
        </g>
    </g>
</svg>