<?xml version="1.0" encoding="UTF-8"?>
<svg width="16px" height="16px" viewBox="0 0 16 16" version="1.1" xmlns="http://www.w3.org/2000/svg" xmlns:xlink="http://www.w3.org/1999/xlink">
    <!-- Generator: Sketch 48.2 (47327) - http://www.bohemiancoding.com/sketch -->
    <title>assets/icons/view-module</title>
    <desc>Created with Sketch.</desc>
    <defs>
        <path d="M6,0 C6.6,0 7,0.4 7,1 L7,6 C7,6.6 6.6,7 6,7 L1,7 C0.4,7 0,6.6 0,6 L0,1 C0,0.4 0.4,0 1,0 L6,0 Z M15,0 C15.6,0 16,0.4 16,1 L16,6 C16,6.6 15.6,7 15,7 L10,7 C9.4,7 9,6.6 9,6 L9,1 C9,0.4 9.4,0 10,0 L15,0 Z M6,9 C6.6,9 7,9.4 7,10 L7,15 C7,15.6 6.6,16 6,16 L1,16 C0.4,16 0,15.6 0,15 L0,10 C0,9.4 0.4,9 1,9 L6,9 Z M15,9 C15.6,9 16,9.4 16,10 L16,15 C16,15.6 15.6,16 15,16 L10,16 C9.4,16 9,15.6 9,15 L9,10 C9,9.4 9.4,9 10,9 L15,9 Z" id="path-1"></path>
    </defs>
    <g id="Symbols" stroke="none" stroke-width="1" fill="none" fill-rule="evenodd">
        <g id="assets/icons/view-module">
            <mask id="mask-2" fill="white">
                <use xlink:href="#path-1"></use>
            </mask>
            <use id="icon" fill="#444444" fill-rule="nonzero" xlink:href="#path-1"></use>
            <g id="pallete/contextual/primary" mask="url(#mask-2)" fill="#747474">
                <rect id="bg" x="0" y="0" width="16" height="16"></rect>
            </g>
        </g>
    </g>
</svg>