<?xml version="1.0" encoding="UTF-8"?>
<svg width="16px" height="16px" viewBox="0 0 16 16" version="1.1" xmlns="http://www.w3.org/2000/svg" xmlns:xlink="http://www.w3.org/1999/xlink">
    <!-- Generator: Sketch 48.2 (47327) - http://www.bohemiancoding.com/sketch -->
    <title>assets/icons/view-column</title>
    <desc>Created with Sketch.</desc>
    <defs>
        <path d="M1.2819426,-5.17920154e-17 L5.7180574,5.17920154e-17 C6.16381677,-3.00926524e-17 6.32545989,0.0464128056 6.48842285,0.133566352 C6.65138581,0.220719898 6.7792801,0.348614185 6.86643365,0.511577148 C6.95358719,0.674540111 7,0.83618323 7,1.2819426 L7,14.7180574 C7,15.1638168 6.95358719,15.3254599 6.86643365,15.4884229 C6.7792801,15.6513858 6.65138581,15.7792801 6.48842285,15.8664336 C6.32545989,15.9535872 6.16381677,16 5.7180574,16 L1.2819426,16 C0.83618323,16 0.674540111,15.9535872 0.511577148,15.8664336 C0.348614185,15.7792801 0.220719898,15.6513858 0.133566352,15.4884229 C0.0464128056,15.3254599 2.00617683e-17,15.1638168 -3.45280103e-17,14.7180574 L3.45280103e-17,1.2819426 C-2.00617683e-17,0.83618323 0.0464128056,0.674540111 0.133566352,0.511577148 C0.220719898,0.348614185 0.348614185,0.220719898 0.511577148,0.133566352 C0.674540111,0.0464128056 0.83618323,3.00926524e-17 1.2819426,-5.17920154e-17 Z M10.2819426,-5.17920154e-17 L14.7180574,5.17920154e-17 C15.1638168,-3.00926524e-17 15.3254599,0.0464128056 15.4884229,0.133566352 C15.6513858,0.220719898 15.7792801,0.348614185 15.8664336,0.511577148 C15.9535872,0.674540111 16,0.83618323 16,1.2819426 L16,14.7180574 C16,15.1638168 15.9535872,15.3254599 15.8664336,15.4884229 C15.7792801,15.6513858 15.6513858,15.7792801 15.4884229,15.8664336 C15.3254599,15.9535872 15.1638168,16 14.7180574,16 L10.2819426,16 C9.83618323,16 9.67454011,15.9535872 9.51157715,15.8664336 C9.34861419,15.7792801 9.2207199,15.6513858 9.13356635,15.4884229 C9.04641281,15.3254599 9,15.1638168 9,14.7180574 L9,1.2819426 C9,0.83618323 9.04641281,0.674540111 9.13356635,0.511577148 C9.2207199,0.348614185 9.34861419,0.220719898 9.51157715,0.133566352 C9.67454011,0.0464128056 9.83618323,3.00926524e-17 10.2819426,-5.17920154e-17 Z" id="path-1"></path>
    </defs>
    <g id="Symbols" stroke="none" stroke-width="1" fill="none" fill-rule="evenodd">
        <g id="assets/icons/view-column">
            <mask id="mask-2" fill="white">
                <use xlink:href="#path-1"></use>
            </mask>
            <use id="icon" fill="#3D3D3D" xlink:href="#path-1"></use>
            <g id="pallete/contextual/primary" mask="url(#mask-2)" fill="#747474">
                <rect id="bg" x="0" y="0" width="16" height="16"></rect>
            </g>
        </g>
    </g>
</svg>